<svg xmlns="http://www.w3.org/2000/svg" width="18" height="16"><path fill="#FFF" d="M9 0a.643.643 0 00-.308.08l-7.01 3.826a.643.643 0 00.247 1.237h1.285v6.428h-.643a.643.643 0 100 1.286H15.43a.643.643 0 100-1.286h-.643V5.143h1.285a.643.643 0 00.247-1.237L9.304.076A.643.643 0 009 0zm0 1.929a.643.643 0 110 1.286.643.643 0 010-1.286zM4.5 5.143h1.286v6.428H4.5V5.143zm2.571 0h1.286v6.428H7.071V5.143zm2.572 0h1.286v6.428H9.643V5.143zm2.571 0H13.5v6.428h-1.286V5.143zm-10.928 9a.643.643 0 100 1.286h15.428a.643.643 0 100-1.286H1.286z"/></svg>