<svg xmlns="http://www.w3.org/2000/svg" width="18" height="16"><g fill="#FFF"><path d="M8.929.84A6.085 6.085 0 002.85 6.92a6.085 6.085 0 006.079 6.078 6.085 6.085 0 006.078-6.079A6.085 6.085 0 008.93.841zm1.275 8.199a1.71 1.71 0 01-.716.334v.898a.526.526 0 01-1.053 0v-.85a2.633 2.633 0 01-.894-.243c-.357-.176-.536-.378-.536-.607a.68.68 0 01.133-.379c.089-.131.191-.197.307-.197.075 0 .169.034.281.102.113.067.261.136.445.207.184.07.402.106.655.106.497 0 .746-.141.746-.423 0-.157-.082-.282-.247-.374a2.493 2.493 0 00-.597-.226 8.491 8.491 0 01-.702-.211 1.37 1.37 0 01-.601-.413c-.165-.193-.248-.44-.248-.742 0-.418.145-.778.435-1.08.196-.205.471-.34.823-.406V3.67a.526.526 0 011.053 0v.853c.22.031.425.083.615.158.326.128.49.283.49.464 0 .115-.046.248-.137.4-.09.151-.204.227-.338.227-.054 0-.2-.042-.44-.126a2.032 2.032 0 00-.672-.127c-.229 0-.404.046-.525.138-.121.092-.182.193-.182.305 0 .111.06.203.182.275.121.072.27.128.45.167.178.04.37.094.574.162.205.07.395.15.57.241.175.092.322.235.44.428.12.193.179.427.179.703 0 .466-.164.833-.49 1.1z"/><path d="M17.439 6.314a.526.526 0 00-.527.526 7.601 7.601 0 01-1.228 4.154 7.656 7.656 0 01-2.181 2.204l.048-.21a.526.526 0 10-1.025-.236l-.316 1.368-.003.015-.004.023-.001.008-.003.022-.002.021v.062l.003.022.001.019.002.01.005.023c0 .006.002.012.003.017 0 .004.002.007.003.01l.007.024.005.016c0 .003.002.005.003.008l.01.024.007.017c0 .003.002.005.003.007l.007.013a.517.517 0 00.011.02l.006.01.006.01a.55.55 0 00.014.021l.007.01a.524.524 0 00.028.035l.008.008.006.007a.512.512 0 00.02.019l.007.007.009.008.018.015.011.009.006.004.006.004a.508.508 0 00.025.017l.007.004a.514.514 0 00.046.025l.01.004a.524.524 0 00.025.01l.01.004.006.003.012.004a.532.532 0 00.026.007l.005.002 1.443.374a.528.528 0 10.265-1.019l-.184-.047a8.707 8.707 0 002.451-2.488 8.652 8.652 0 001.399-4.728.526.526 0 00-.526-.526zM4.021.54V.518L4.017.49V.483L4.015.464 4.01.44 4.009.431 4.004.413 3.998.39 3.995.38 3.988.362 3.98.342c0-.003-.002-.006-.003-.008l-.01-.02-.009-.019-.004-.007-.013-.02-.01-.017a.363.363 0 00-.004-.006L3.911.224 3.907.219 3.901.21 3.896.206 3.877.185C3.875.18 3.87.175 3.866.17L3.862.168 3.84.148l-.013-.01-.004-.004L3.8.117l-.014-.01-.004-.003c-.008-.006-.017-.01-.026-.015L3.742.08 3.738.078 3.71.065 3.696.06a.512.512 0 00-.033-.012L3.648.04a.52.52 0 00-.034-.008L3.597.029a.53.53 0 00-.033-.005L3.546.02h-.045L3.495.018h-.011L1.876.053a.526.526 0 00.022 1.052l.27-.006A8.655 8.655 0 000 6.84a.526.526 0 001.053 0c0-1.888.691-3.681 1.927-5.069v.133a.526.526 0 00.527.521h.005a.526.526 0 00.521-.53L4.021.54z"/></g></svg>