<svg xmlns="http://www.w3.org/2000/svg" width="22" height="23" style="&#10;"><path d="M16.09 0c-.387 0-.847.082-1.472.25C13.04.676 3.804 3.289 3.667 3.33c-1.372.528-2.24 1.046-2.783 1.656.637-.441 1.4-.72 2.259-.72H17.81v-1.79C17.81 1.61 17.804 0 16.09 0zM3.144 5.336C1.196 5.336 0 7.206 0 8.548v11.441C0 21.646 1.325 23 2.946 23h16.108C20.675 23 22 21.646 22 19.99V8.463c0-1.637-1.498-3.128-3.143-3.128H3.143zM18.07 12.83c.722 0 1.31.599 1.31 1.338 0 .74-.588 1.338-1.31 1.338-.723 0-1.31-.599-1.31-1.338 0-.74.587-1.338 1.31-1.338z" fill="#FFF" fill-rule="nonzero"/></svg>