<svg xmlns="http://www.w3.org/2000/svg" width="18" height="16"><g fill="#FFF"><path d="M5.225 9.283A11.2 11.2 0 006.68 9.19V4.124a11.168 11.168 0 00-1.456-.094C2.339 4.03 0 5.091 0 6.4v.514c0 1.308 2.34 2.37 5.225 2.37zm0 2.646c.505 0 .993-.033 1.456-.093V10.35c-.463.061-.951.094-1.456.094-2.52 0-4.621-.808-5.115-1.884-.072.157-.11.319-.11.485v.514c0 1.309 2.34 2.37 5.225 2.37zm1.455 1.182v-.115c-.462.06-.95.094-1.455.094-2.52 0-4.621-.809-5.115-1.884-.072.156-.11.319-.11.485v.514c0 1.309 2.34 2.37 5.225 2.37.577 0 1.132-.043 1.65-.121a1.87 1.87 0 01-.194-.829v-.514zM12.758.017c-2.886 0-5.225 1.06-5.225 2.37V2.9c0 1.31 2.34 2.37 5.225 2.37s5.224-1.06 5.224-2.37v-.513c0-1.31-2.339-2.37-5.224-2.37z"/><path d="M12.758 6.431c-2.519 0-4.621-.808-5.115-1.884-.072.156-.11.319-.11.485v.514c0 1.309 2.34 2.37 5.225 2.37s5.224-1.061 5.224-2.37v-.514c0-.166-.038-.329-.11-.485-.494 1.076-2.596 1.884-5.114 1.884z"/><path d="M12.758 9.077c-2.519 0-4.621-.809-5.115-1.885a1.16 1.16 0 00-.11.486v.514c0 1.308 2.34 2.37 5.225 2.37s5.224-1.062 5.224-2.37v-.514c0-.167-.038-.329-.11-.486-.494 1.076-2.596 1.885-5.114 1.885z"/><path d="M12.758 11.865c-2.519 0-4.621-.808-5.115-1.884-.072.156-.11.319-.11.485v.514c0 1.309 2.34 2.37 5.225 2.37s5.224-1.061 5.224-2.37v-.514c0-.166-.038-.329-.11-.485-.494 1.075-2.596 1.884-5.114 1.884z"/><path d="M12.758 14.51c-2.519 0-4.621-.808-5.115-1.884-.072.157-.11.32-.11.485v.514c0 1.31 2.34 2.37 5.225 2.37s5.224-1.06 5.224-2.37v-.514c0-.166-.038-.328-.11-.485-.494 1.076-2.596 1.884-5.114 1.884z"/></g></svg>