<svg xmlns="http://www.w3.org/2000/svg" width="17" height="18"><path fill="#FFF" d="M7.667.012c-.575 0-.976.457-1.26.856-.261.367-.686.38-1.479.38-.421 0-.962.039-1.296.28.496.833 1.145 1.454 1.736 1.615.314.085.566.029.795-.16.38-.36.803-.748 1.32-.709.369.027.695.252 1.077.734a.386.386 0 00.281.135c.203.013.456-.107.673-.306.229-.205.494-.414.77-.636.447-.359 1.243-.993 1.37-1.296a.944.944 0 00-.502-.122c-.31 0-.611.076-.905.146-.25.06-.484.11-.684.11-.177 0-.307-.037-.404-.134C8.557.279 8.114.012 7.667.012zm4.207 1.859c-.302.302-.687.61-1.1.942-.262.21-.521.42-.735.61-.376.346-.836.532-1.26.502a1.143 1.143 0 01-.818-.428c-.3-.378-.468-.447-.538-.452-.172-.004-.483.288-.734.526a1.63 1.63 0 01-1.052.391c-.157 0-.312-.029-.477-.073-.32-.087-.634-.265-.941-.502.386.41.931 1.138 1.027 2.152.81.501 2.692 1.348 4.891.11.124-.07.268-.17.428-.28.013-.01.024-.016.037-.025-.107-1.454.746-2.578.856-2.715l.037-.049a3.96 3.96 0 00.379-.71zm1.516 2.433c-.766-.035-1.45.23-2.005.538-.011.12-.006.24 0 .367.176.071.35.16.525.245a10.03 10.03 0 012.348 1.59h.025a.395.395 0 00.269-.11.388.388 0 00.012-.55c-.674-.713-1.505-1.026-2.324-1.09.646-.259 1.401-.331 2.25.135.19.104.422.03.526-.159a.386.386 0 00-.159-.525c-.522-.287-1.007-.42-1.467-.44zm-2.262 1.627l-.123.085c-.18.124-.335.225-.476.306-.963.542-1.882.746-2.703.746-1.425 0-2.555-.582-3.118-.942C2.225 7.191 0 10.296 0 12.95 0 17.217 2.767 18 8.217 18c5.45 0 8.218-.783 8.218-5.05 0-3.161-2.639-5.955-5.307-7.02zM7.63 8.217h.71v.82c1.017.195 1.37.905 1.565 1.687h-.71c-.117-.547-.466-1.015-1.21-1.015-1.056 0-1.174.702-1.174 1.015 0 .743.7.893 1.443 1.088.94.235 1.883.55 1.883 1.725 0 1.408-1.25 1.807-1.797 1.846v.66h-.71v-.66c-.587-.117-1.643-.48-1.76-2.005h.709c0 .47.31 1.333 1.406 1.333 1.057 0 1.333-.502 1.333-1.089 0-1.721-3.29-.554-3.29-2.824 0-1.253 1.015-1.72 1.602-1.798v-.783z"/></svg>