<svg id="Capa_1" enable-background="new 0 0 512 512" height="512" viewBox="0 0 512 512" width="512" xmlns="http://www.w3.org/2000/svg" xmlns:xlink="http://www.w3.org/1999/xlink"><linearGradient id="SVGID_1_" gradientUnits="userSpaceOnUse" x1="241" x2="241" y1="481.007" y2="136.007"><stop offset="0" stop-color="#a93aff"/><stop offset="1" stop-color="#ff81ff"/></linearGradient><linearGradient id="SVGID_2_" gradientUnits="userSpaceOnUse" x1="278.5" x2="278.5" y1="391.007" y2="30.993"><stop offset="0" stop-color="#ffbef9"/><stop offset="1" stop-color="#fff1ff"/></linearGradient><g><g><g><path d="m437 151.007h-15l-54-15h-205.632l-117.368 15c-24.814 0-45 20.186-45 45v240c0 24.814 20.186 45 45 45h392c24.814 0 45-20.186 45-45v-240c0-24.815-20.186-45-45-45z" fill="url(#SVGID_1_)"/></g></g><g><g><path d="m422 46.007c0-4.819-2.314-9.346-6.24-12.173-3.926-2.812-8.906-3.618-13.506-2.051l-357.254 119.224h377zm45 195h-120c-24.814 0-45 20.186-45 45v60c0 24.814 20.186 45 45 45h120c24.814 0 45-20.186 45-45v-60c0-24.815-20.186-45-45-45zm-90 90c-8.284 0-15-6.716-15-15 0-8.286 6.716-15 15-15s15 6.714 15 15c0 8.284-6.716 15-15 15z" fill="url(#SVGID_2_)"/></g></g></g></svg>